<?xml version="1.0" encoding="utf-8"?>
<!-- Generator: Adobe Illustrator 27.1.1, SVG Export Plug-In . SVG Version: 6.00 Build 0)  -->
<svg version="1.1" id="레이어_1" xmlns="http://www.w3.org/2000/svg" xmlns:xlink="http://www.w3.org/1999/xlink" x="0px"
	 y="0px" viewBox="0 0 500 500" style="enable-background:new 0 0 500 500;" xml:space="preserve">
<g>
	<path d="M116.94,381.73c-4.06,5.64-6.58,10.64-7.48,14.84c-0.36,2.41,0.04,4.16,1.23,5.35c2.09,1.89,6.11,2.56,11.9,1.92
		c7.12-0.69,15.89-3.39,26.1-8.02c21.56-9.84,44.4-25.07,67.89-45.27c17.54-15.19,32.24-30.56,43.75-45.76
		c-34.5,8.82-65.2,20.75-91.32,35.49C144.91,353.6,127.4,367.55,116.94,381.73z"/>
	<path d="M250,2.5L250,2.5C113.31,2.5,2.5,113.31,2.5,250v0c0,136.69,110.81,247.5,247.5,247.5h0c136.69,0,247.5-110.81,247.5-247.5
		v0C497.5,113.31,386.69,2.5,250,2.5z M420.13,284.75c-1.81,1.81-3.96,2.72-6.4,2.72h-0.36c-44.42-0.7-87.08,3.05-126.85,11.16
		c-12.64,21.45-32.18,43.65-58.08,65.98c-24.73,21.15-48.97,37.19-72.05,47.67c-12.25,5.52-22.99,8.81-31.95,9.78
		c-1.93,0.21-3.8,0.31-5.58,0.31c-8.84,0-15.88-2.56-20.97-7.65c-5.68-5.42-7.79-12.61-6.25-21.35c1.23-6.92,4.83-14.5,10.68-22.55
		c11.99-16.07,31.49-31.71,57.97-46.5c32.07-18.15,70.4-32.17,113.93-41.67c3.9-7.73,6.32-14.66,7.21-20.62
		c1.1-7.51-0.1-13.85-3.58-18.86c-3.28-5.03-8.63-7.88-16.39-8.77c-7.57-0.91-16.79,0.03-27.4,2.8c-8.67,2.11-17.44,5.01-26.08,8.63
		c-8.65,3.63-14.9,6.63-18.59,8.93c-1.53,0.92-3.07,1.37-4.62,1.37c-2.44,0-4.59-0.92-6.4-2.72c-1.81-1.81-2.72-3.96-2.72-6.4
		c0-3.26,1.42-5.93,4.1-7.72c31.36-20.28,57.88-39.98,78.83-58.59c16.16-14.52,28.02-27.67,35.25-39.1
		c7.4-11.66,9.52-20.95,6.3-27.62c-2.92-5.82-9.83-8.57-20.55-8.13c-11.96,0.69-25.4,4.98-39.91,12.76
		c-14.53,7.79-26.01,16.79-34.11,26.74c-7.82,9.61-10.7,17.97-8.54,24.85c0.29,0.9,0.45,1.82,0.45,2.73c0,2.68-0.86,4.89-2.54,6.58
		c-1.69,1.69-3.9,2.54-6.58,2.54c-4.19,0-7.18-2.18-8.65-6.31c-4.26-13.02-0.31-27.08,11.73-41.82
		c9.6-12.01,22.99-22.61,39.78-31.48c16.79-8.87,32.75-13.86,47.45-14.83l0.13,0h5.34c15.75,0.75,26.62,6.86,32.4,18.18
		c6.25,12.75,3.82,28.02-7.21,45.42c-8.13,12.91-21.19,27.43-38.82,43.15c-7.85,7.07-16.92,14.52-27.01,22.22
		c7.37-0.98,14.14-1.12,20.21-0.41c12.89,1.74,22.7,7.29,29.18,16.5c5.98,8.96,8.12,19.73,6.4,32.05
		c-0.59,4.33-1.67,8.87-3.22,13.54c37.19-6.46,76.76-9.51,117.71-9.05c2.38,0,4.51,0.83,6.31,2.48c1.85,1.7,2.79,3.87,2.79,6.46
		C422.85,280.73,421.94,282.94,420.13,284.75z"/>
</g>
</svg>
